<mxfile host="app.diagrams.net" agent="Mozilla/5.0 (Windows NT 10.0; Win64; x64) AppleWebKit/537.36 (KHTML, like Gecko) Chrome/132.0.0.0 Safari/537.36" version="26.0.10" pages="3">
  <diagram name="Página-1" id="eWYCYLcSDpuf7BqtJHej">
    <mxGraphModel dx="1707" dy="426" grid="1" gridSize="10" guides="1" tooltips="1" connect="1" arrows="1" fold="1" page="1" pageScale="1" pageWidth="827" pageHeight="1169" math="0" shadow="0">
      <root>
        <mxCell id="0" />
        <mxCell id="1" parent="0" />
        <mxCell id="BXSgU2w07d0JosHYJuai-1" value="&lt;font style=&quot;vertical-align: inherit;&quot;&gt;&lt;font style=&quot;vertical-align: inherit;&quot;&gt;Actor&lt;/font&gt;&lt;/font&gt;" style="rounded=0;whiteSpace=wrap;html=1;" parent="1" vertex="1">
          <mxGeometry x="240" y="400" width="90" height="40" as="geometry" />
        </mxCell>
        <mxCell id="BXSgU2w07d0JosHYJuai-2" value="&lt;u&gt;código&lt;/u&gt;" style="ellipse;whiteSpace=wrap;html=1;" parent="1" vertex="1">
          <mxGeometry x="70" y="320" width="90" height="40" as="geometry" />
        </mxCell>
        <mxCell id="BXSgU2w07d0JosHYJuai-3" value="Nombre" style="ellipse;whiteSpace=wrap;html=1;" parent="1" vertex="1">
          <mxGeometry x="50" y="420" width="90" height="50" as="geometry" />
        </mxCell>
        <mxCell id="BXSgU2w07d0JosHYJuai-4" value="Nombrer" style="ellipse;whiteSpace=wrap;html=1;" parent="1" vertex="1">
          <mxGeometry x="-20" y="510" width="80" height="45" as="geometry" />
        </mxCell>
        <mxCell id="BXSgU2w07d0JosHYJuai-7" value="Apellido" style="ellipse;whiteSpace=wrap;html=1;" parent="1" vertex="1">
          <mxGeometry x="130" y="500" width="80" height="45" as="geometry" />
        </mxCell>
        <mxCell id="KuPKTzMFRe-4uUBEJXEK-1" value="Edad" style="ellipse;whiteSpace=wrap;html=1;align=center;dashed=1;" parent="1" vertex="1">
          <mxGeometry x="230" y="250" width="70" height="40" as="geometry" />
        </mxCell>
        <mxCell id="KuPKTzMFRe-4uUBEJXEK-2" value="FechaNacimiento" style="ellipse;whiteSpace=wrap;html=1;align=center;" parent="1" vertex="1">
          <mxGeometry x="347" y="240" width="146" height="40" as="geometry" />
        </mxCell>
        <mxCell id="KuPKTzMFRe-4uUBEJXEK-3" value="Teléfono" style="ellipse;shape=doubleEllipse;margin=3;whiteSpace=wrap;html=1;align=center;" parent="1" vertex="1">
          <mxGeometry x="364" y="320" width="100" height="40" as="geometry" />
        </mxCell>
        <mxCell id="KuPKTzMFRe-4uUBEJXEK-5" value="Película&amp;nbsp;" style="rounded=0;whiteSpace=wrap;html=1;" parent="1" vertex="1">
          <mxGeometry x="650" y="400" width="80" height="40" as="geometry" />
        </mxCell>
        <mxCell id="KuPKTzMFRe-4uUBEJXEK-6" value="&lt;u&gt;código&lt;/u&gt;" style="ellipse;whiteSpace=wrap;html=1;" parent="1" vertex="1">
          <mxGeometry x="550" y="280" width="90" height="40" as="geometry" />
        </mxCell>
        <mxCell id="KuPKTzMFRe-4uUBEJXEK-7" value="Título&amp;nbsp;" style="ellipse;whiteSpace=wrap;html=1;" parent="1" vertex="1">
          <mxGeometry x="680" y="250" width="90" height="40" as="geometry" />
        </mxCell>
        <mxCell id="KuPKTzMFRe-4uUBEJXEK-8" value="Dirección" style="ellipse;whiteSpace=wrap;html=1;" parent="1" vertex="1">
          <mxGeometry x="770" y="330" width="100" height="30" as="geometry" />
        </mxCell>
        <mxCell id="HGdRiawXm8OZpBwiS0sj-1" value="" style="endArrow=none;html=1;rounded=0;exitX=1;exitY=0;exitDx=0;exitDy=0;entryX=0.08;entryY=0.675;entryDx=0;entryDy=0;entryPerimeter=0;" edge="1" parent="1" source="BXSgU2w07d0JosHYJuai-1" target="KuPKTzMFRe-4uUBEJXEK-3">
          <mxGeometry width="50" height="50" relative="1" as="geometry">
            <mxPoint x="390" y="450" as="sourcePoint" />
            <mxPoint x="440" y="400" as="targetPoint" />
          </mxGeometry>
        </mxCell>
        <mxCell id="HGdRiawXm8OZpBwiS0sj-2" value="" style="endArrow=none;html=1;rounded=0;entryX=0;entryY=1;entryDx=0;entryDy=0;exitX=0.75;exitY=0;exitDx=0;exitDy=0;" edge="1" parent="1" source="BXSgU2w07d0JosHYJuai-1" target="KuPKTzMFRe-4uUBEJXEK-2">
          <mxGeometry width="50" height="50" relative="1" as="geometry">
            <mxPoint x="390" y="410" as="sourcePoint" />
            <mxPoint x="440" y="360" as="targetPoint" />
          </mxGeometry>
        </mxCell>
        <mxCell id="HGdRiawXm8OZpBwiS0sj-4" value="" style="endArrow=none;html=1;rounded=0;exitX=0.5;exitY=1;exitDx=0;exitDy=0;entryX=0.5;entryY=0;entryDx=0;entryDy=0;" edge="1" parent="1" source="KuPKTzMFRe-4uUBEJXEK-1" target="BXSgU2w07d0JosHYJuai-1">
          <mxGeometry width="50" height="50" relative="1" as="geometry">
            <mxPoint x="390" y="410" as="sourcePoint" />
            <mxPoint x="440" y="360" as="targetPoint" />
          </mxGeometry>
        </mxCell>
        <mxCell id="HGdRiawXm8OZpBwiS0sj-5" value="" style="endArrow=none;html=1;rounded=0;exitX=1;exitY=1;exitDx=0;exitDy=0;entryX=0;entryY=0;entryDx=0;entryDy=0;" edge="1" parent="1" source="BXSgU2w07d0JosHYJuai-2" target="BXSgU2w07d0JosHYJuai-1">
          <mxGeometry width="50" height="50" relative="1" as="geometry">
            <mxPoint x="390" y="410" as="sourcePoint" />
            <mxPoint x="440" y="360" as="targetPoint" />
          </mxGeometry>
        </mxCell>
        <mxCell id="HGdRiawXm8OZpBwiS0sj-6" value="" style="endArrow=none;html=1;rounded=0;exitX=0;exitY=0.5;exitDx=0;exitDy=0;entryX=0.5;entryY=0;entryDx=0;entryDy=0;" edge="1" parent="1" source="BXSgU2w07d0JosHYJuai-1" target="BXSgU2w07d0JosHYJuai-3">
          <mxGeometry width="50" height="50" relative="1" as="geometry">
            <mxPoint x="390" y="410" as="sourcePoint" />
            <mxPoint x="440" y="360" as="targetPoint" />
          </mxGeometry>
        </mxCell>
        <mxCell id="HGdRiawXm8OZpBwiS0sj-7" value="" style="endArrow=none;html=1;rounded=0;exitX=0.375;exitY=0;exitDx=0;exitDy=0;exitPerimeter=0;entryX=1;entryY=1;entryDx=0;entryDy=0;" edge="1" parent="1" source="BXSgU2w07d0JosHYJuai-7" target="BXSgU2w07d0JosHYJuai-3">
          <mxGeometry width="50" height="50" relative="1" as="geometry">
            <mxPoint x="390" y="410" as="sourcePoint" />
            <mxPoint x="440" y="360" as="targetPoint" />
          </mxGeometry>
        </mxCell>
        <mxCell id="HGdRiawXm8OZpBwiS0sj-8" value="" style="endArrow=none;html=1;rounded=0;entryX=0.5;entryY=0;entryDx=0;entryDy=0;exitX=0;exitY=1;exitDx=0;exitDy=0;" edge="1" parent="1" source="BXSgU2w07d0JosHYJuai-3" target="BXSgU2w07d0JosHYJuai-4">
          <mxGeometry width="50" height="50" relative="1" as="geometry">
            <mxPoint x="390" y="410" as="sourcePoint" />
            <mxPoint x="440" y="360" as="targetPoint" />
          </mxGeometry>
        </mxCell>
        <mxCell id="HGdRiawXm8OZpBwiS0sj-11" value="" style="endArrow=none;html=1;rounded=0;exitX=0.5;exitY=1;exitDx=0;exitDy=0;entryX=0;entryY=0;entryDx=0;entryDy=0;" edge="1" parent="1" source="KuPKTzMFRe-4uUBEJXEK-6" target="KuPKTzMFRe-4uUBEJXEK-5">
          <mxGeometry width="50" height="50" relative="1" as="geometry">
            <mxPoint x="600" y="410" as="sourcePoint" />
            <mxPoint x="650" y="360" as="targetPoint" />
          </mxGeometry>
        </mxCell>
        <mxCell id="HGdRiawXm8OZpBwiS0sj-12" value="" style="endArrow=none;html=1;rounded=0;entryX=0.5;entryY=1;entryDx=0;entryDy=0;exitX=0.25;exitY=0;exitDx=0;exitDy=0;" edge="1" parent="1" source="KuPKTzMFRe-4uUBEJXEK-5" target="KuPKTzMFRe-4uUBEJXEK-7">
          <mxGeometry width="50" height="50" relative="1" as="geometry">
            <mxPoint x="600" y="410" as="sourcePoint" />
            <mxPoint x="650" y="360" as="targetPoint" />
          </mxGeometry>
        </mxCell>
        <mxCell id="HGdRiawXm8OZpBwiS0sj-13" value="" style="endArrow=none;html=1;rounded=0;entryX=0;entryY=1;entryDx=0;entryDy=0;exitX=1;exitY=0;exitDx=0;exitDy=0;" edge="1" parent="1" source="KuPKTzMFRe-4uUBEJXEK-5" target="KuPKTzMFRe-4uUBEJXEK-8">
          <mxGeometry width="50" height="50" relative="1" as="geometry">
            <mxPoint x="600" y="410" as="sourcePoint" />
            <mxPoint x="650" y="360" as="targetPoint" />
          </mxGeometry>
        </mxCell>
        <mxCell id="HGdRiawXm8OZpBwiS0sj-14" value="" style="edgeStyle=entityRelationEdgeStyle;fontSize=12;html=1;endArrow=ERzeroToMany;endFill=1;startArrow=ERzeroToMany;rounded=0;exitX=1;exitY=0.5;exitDx=0;exitDy=0;" edge="1" parent="1" source="BXSgU2w07d0JosHYJuai-1" target="KuPKTzMFRe-4uUBEJXEK-4">
          <mxGeometry width="100" height="100" relative="1" as="geometry">
            <mxPoint x="200" y="430" as="sourcePoint" />
            <mxPoint x="300" y="330" as="targetPoint" />
          </mxGeometry>
        </mxCell>
        <mxCell id="HGdRiawXm8OZpBwiS0sj-15" value="" style="edgeStyle=entityRelationEdgeStyle;fontSize=12;html=1;endArrow=ERzeroToMany;endFill=1;startArrow=ERzeroToMany;rounded=0;exitX=1;exitY=0.5;exitDx=0;exitDy=0;entryX=0;entryY=0.5;entryDx=0;entryDy=0;" edge="1" parent="1" source="KuPKTzMFRe-4uUBEJXEK-4" target="KuPKTzMFRe-4uUBEJXEK-5">
          <mxGeometry width="100" height="100" relative="1" as="geometry">
            <mxPoint x="520" y="430" as="sourcePoint" />
            <mxPoint x="620" y="330" as="targetPoint" />
          </mxGeometry>
        </mxCell>
        <mxCell id="HGdRiawXm8OZpBwiS0sj-16" value="&lt;u&gt;código&lt;/u&gt;" style="ellipse;whiteSpace=wrap;html=1;" vertex="1" parent="1">
          <mxGeometry x="520" y="620" width="90" height="40" as="geometry" />
        </mxCell>
        <mxCell id="HGdRiawXm8OZpBwiS0sj-17" value="Dirección" style="ellipse;whiteSpace=wrap;html=1;" vertex="1" parent="1">
          <mxGeometry x="827" y="630" width="100" height="30" as="geometry" />
        </mxCell>
        <mxCell id="HGdRiawXm8OZpBwiS0sj-18" value="&lt;u&gt;código&lt;/u&gt;" style="ellipse;whiteSpace=wrap;html=1;" vertex="1" parent="1">
          <mxGeometry x="610" y="690" width="90" height="40" as="geometry" />
        </mxCell>
        <mxCell id="KuPKTzMFRe-4uUBEJXEK-4" value="Actúa" style="rhombus;whiteSpace=wrap;html=1;" parent="1" vertex="1">
          <mxGeometry x="450" y="400" width="80" height="40" as="geometry" />
        </mxCell>
        <mxCell id="HGdRiawXm8OZpBwiS0sj-19" value="Actúa" style="rhombus;whiteSpace=wrap;html=1;" vertex="1" parent="1">
          <mxGeometry x="650" y="480" width="80" height="40" as="geometry" />
        </mxCell>
        <mxCell id="HGdRiawXm8OZpBwiS0sj-20" value="Película&amp;nbsp;" style="rounded=0;whiteSpace=wrap;html=1;" vertex="1" parent="1">
          <mxGeometry x="650" y="570" width="80" height="40" as="geometry" />
        </mxCell>
        <mxCell id="HGdRiawXm8OZpBwiS0sj-21" value="Dirección" style="ellipse;whiteSpace=wrap;html=1;" vertex="1" parent="1">
          <mxGeometry x="750" y="700" width="90" height="30" as="geometry" />
        </mxCell>
        <mxCell id="HGdRiawXm8OZpBwiS0sj-22" value="Ciudad" style="ellipse;whiteSpace=wrap;html=1;" vertex="1" parent="1">
          <mxGeometry x="840" y="740" width="90" height="40" as="geometry" />
        </mxCell>
        <mxCell id="HGdRiawXm8OZpBwiS0sj-55" value="País" style="ellipse;whiteSpace=wrap;html=1;" vertex="1" parent="1">
          <mxGeometry x="950" y="690" width="90" height="40" as="geometry" />
        </mxCell>
        <mxCell id="HGdRiawXm8OZpBwiS0sj-56" value="" style="endArrow=none;html=1;rounded=0;entryX=0.5;entryY=1;entryDx=0;entryDy=0;exitX=0.5;exitY=0;exitDx=0;exitDy=0;" edge="1" parent="1" source="HGdRiawXm8OZpBwiS0sj-19" target="KuPKTzMFRe-4uUBEJXEK-5">
          <mxGeometry width="50" height="50" relative="1" as="geometry">
            <mxPoint x="380" y="610" as="sourcePoint" />
            <mxPoint x="430" y="560" as="targetPoint" />
          </mxGeometry>
        </mxCell>
        <mxCell id="HGdRiawXm8OZpBwiS0sj-57" value="" style="endArrow=none;html=1;rounded=0;entryX=0.5;entryY=1;entryDx=0;entryDy=0;exitX=0.5;exitY=0;exitDx=0;exitDy=0;" edge="1" parent="1" source="HGdRiawXm8OZpBwiS0sj-20" target="HGdRiawXm8OZpBwiS0sj-19">
          <mxGeometry width="50" height="50" relative="1" as="geometry">
            <mxPoint x="690" y="560" as="sourcePoint" />
            <mxPoint x="430" y="560" as="targetPoint" />
          </mxGeometry>
        </mxCell>
        <mxCell id="HGdRiawXm8OZpBwiS0sj-58" value="" style="endArrow=none;html=1;rounded=0;exitX=0;exitY=1;exitDx=0;exitDy=0;entryX=0.5;entryY=0;entryDx=0;entryDy=0;" edge="1" parent="1" source="HGdRiawXm8OZpBwiS0sj-20" target="HGdRiawXm8OZpBwiS0sj-16">
          <mxGeometry width="50" height="50" relative="1" as="geometry">
            <mxPoint x="700" y="610" as="sourcePoint" />
            <mxPoint x="750" y="560" as="targetPoint" />
          </mxGeometry>
        </mxCell>
        <mxCell id="HGdRiawXm8OZpBwiS0sj-59" value="" style="endArrow=none;html=1;rounded=0;entryX=0.5;entryY=0;entryDx=0;entryDy=0;exitX=0.363;exitY=1.05;exitDx=0;exitDy=0;exitPerimeter=0;" edge="1" parent="1" source="HGdRiawXm8OZpBwiS0sj-20" target="HGdRiawXm8OZpBwiS0sj-18">
          <mxGeometry width="50" height="50" relative="1" as="geometry">
            <mxPoint x="670" y="620" as="sourcePoint" />
            <mxPoint x="750" y="560" as="targetPoint" />
          </mxGeometry>
        </mxCell>
        <mxCell id="HGdRiawXm8OZpBwiS0sj-60" value="" style="endArrow=none;html=1;rounded=0;exitX=0.5;exitY=0;exitDx=0;exitDy=0;entryX=0.22;entryY=0.933;entryDx=0;entryDy=0;entryPerimeter=0;" edge="1" parent="1" source="HGdRiawXm8OZpBwiS0sj-21" target="HGdRiawXm8OZpBwiS0sj-17">
          <mxGeometry width="50" height="50" relative="1" as="geometry">
            <mxPoint x="700" y="710" as="sourcePoint" />
            <mxPoint x="750" y="660" as="targetPoint" />
          </mxGeometry>
        </mxCell>
        <mxCell id="HGdRiawXm8OZpBwiS0sj-61" value="" style="endArrow=none;html=1;rounded=0;entryX=0.36;entryY=0;entryDx=0;entryDy=0;entryPerimeter=0;exitX=1;exitY=0.5;exitDx=0;exitDy=0;" edge="1" parent="1" source="HGdRiawXm8OZpBwiS0sj-20" target="HGdRiawXm8OZpBwiS0sj-17">
          <mxGeometry width="50" height="50" relative="1" as="geometry">
            <mxPoint x="700" y="710" as="sourcePoint" />
            <mxPoint x="740" y="620" as="targetPoint" />
          </mxGeometry>
        </mxCell>
        <mxCell id="HGdRiawXm8OZpBwiS0sj-62" value="" style="endArrow=none;html=1;rounded=0;entryX=0.5;entryY=1;entryDx=0;entryDy=0;exitX=0.5;exitY=0;exitDx=0;exitDy=0;" edge="1" parent="1" source="HGdRiawXm8OZpBwiS0sj-22" target="HGdRiawXm8OZpBwiS0sj-17">
          <mxGeometry width="50" height="50" relative="1" as="geometry">
            <mxPoint x="700" y="810" as="sourcePoint" />
            <mxPoint x="750" y="760" as="targetPoint" />
          </mxGeometry>
        </mxCell>
        <mxCell id="HGdRiawXm8OZpBwiS0sj-63" value="" style="endArrow=none;html=1;rounded=0;entryX=1;entryY=0.5;entryDx=0;entryDy=0;exitX=0.289;exitY=0.025;exitDx=0;exitDy=0;exitPerimeter=0;" edge="1" parent="1" source="HGdRiawXm8OZpBwiS0sj-55" target="HGdRiawXm8OZpBwiS0sj-17">
          <mxGeometry width="50" height="50" relative="1" as="geometry">
            <mxPoint x="700" y="810" as="sourcePoint" />
            <mxPoint x="750" y="760" as="targetPoint" />
          </mxGeometry>
        </mxCell>
        <mxCell id="HGdRiawXm8OZpBwiS0sj-67" value="M" style="text;html=1;align=center;verticalAlign=middle;whiteSpace=wrap;rounded=0;" vertex="1" parent="1">
          <mxGeometry x="540" y="400" width="60" height="30" as="geometry" />
        </mxCell>
        <mxCell id="HGdRiawXm8OZpBwiS0sj-69" value="N" style="text;html=1;align=center;verticalAlign=middle;whiteSpace=wrap;rounded=0;" vertex="1" parent="1">
          <mxGeometry x="390" y="400" width="60" height="30" as="geometry" />
        </mxCell>
      </root>
    </mxGraphModel>
  </diagram>
  <diagram name="Copia de Página-1" id="YIsVa3kQTI2c6tYF6yl_">
    <mxGraphModel dx="1120" dy="476" grid="1" gridSize="10" guides="1" tooltips="1" connect="1" arrows="1" fold="1" page="1" pageScale="1" pageWidth="827" pageHeight="1169" math="0" shadow="0">
      <root>
        <mxCell id="J3-oBvN2u1RVsM9mRVee-0" />
        <mxCell id="J3-oBvN2u1RVsM9mRVee-1" parent="J3-oBvN2u1RVsM9mRVee-0" />
        <mxCell id="J3-oBvN2u1RVsM9mRVee-2" value="&lt;font style=&quot;vertical-align: inherit;&quot;&gt;&lt;font style=&quot;vertical-align: inherit;&quot;&gt;Actor&lt;/font&gt;&lt;/font&gt;" style="rounded=0;whiteSpace=wrap;html=1;" vertex="1" parent="J3-oBvN2u1RVsM9mRVee-1">
          <mxGeometry x="240" y="400" width="90" height="40" as="geometry" />
        </mxCell>
        <mxCell id="J3-oBvN2u1RVsM9mRVee-3" value="código" style="ellipse;whiteSpace=wrap;html=1;" vertex="1" parent="J3-oBvN2u1RVsM9mRVee-1">
          <mxGeometry x="70" y="320" width="90" height="40" as="geometry" />
        </mxCell>
        <mxCell id="J3-oBvN2u1RVsM9mRVee-4" value="Nombre" style="ellipse;whiteSpace=wrap;html=1;" vertex="1" parent="J3-oBvN2u1RVsM9mRVee-1">
          <mxGeometry x="70" y="440" width="90" height="50" as="geometry" />
        </mxCell>
        <mxCell id="J3-oBvN2u1RVsM9mRVee-5" value="Nombrer" style="ellipse;whiteSpace=wrap;html=1;" vertex="1" parent="J3-oBvN2u1RVsM9mRVee-1">
          <mxGeometry x="20" y="530" width="80" height="45" as="geometry" />
        </mxCell>
        <mxCell id="J3-oBvN2u1RVsM9mRVee-6" value="Apellido" style="ellipse;whiteSpace=wrap;html=1;" vertex="1" parent="J3-oBvN2u1RVsM9mRVee-1">
          <mxGeometry x="140" y="530" width="80" height="45" as="geometry" />
        </mxCell>
        <mxCell id="J3-oBvN2u1RVsM9mRVee-7" value="Edad" style="ellipse;whiteSpace=wrap;html=1;align=center;dashed=1;" vertex="1" parent="J3-oBvN2u1RVsM9mRVee-1">
          <mxGeometry x="230" y="250" width="70" height="40" as="geometry" />
        </mxCell>
        <mxCell id="J3-oBvN2u1RVsM9mRVee-8" value="FechaNacimiento" style="ellipse;whiteSpace=wrap;html=1;align=center;" vertex="1" parent="J3-oBvN2u1RVsM9mRVee-1">
          <mxGeometry x="347" y="240" width="146" height="40" as="geometry" />
        </mxCell>
        <mxCell id="J3-oBvN2u1RVsM9mRVee-9" value="Teléfono" style="ellipse;shape=doubleEllipse;margin=3;whiteSpace=wrap;html=1;align=center;" vertex="1" parent="J3-oBvN2u1RVsM9mRVee-1">
          <mxGeometry x="360" y="320" width="100" height="40" as="geometry" />
        </mxCell>
        <mxCell id="J3-oBvN2u1RVsM9mRVee-10" value="Actúa" style="rhombus;whiteSpace=wrap;html=1;" vertex="1" parent="J3-oBvN2u1RVsM9mRVee-1">
          <mxGeometry x="450" y="400" width="80" height="40" as="geometry" />
        </mxCell>
        <mxCell id="J3-oBvN2u1RVsM9mRVee-11" value="Película&amp;nbsp;" style="rounded=0;whiteSpace=wrap;html=1;" vertex="1" parent="J3-oBvN2u1RVsM9mRVee-1">
          <mxGeometry x="650" y="400" width="80" height="40" as="geometry" />
        </mxCell>
        <mxCell id="J3-oBvN2u1RVsM9mRVee-12" value="código" style="ellipse;whiteSpace=wrap;html=1;" vertex="1" parent="J3-oBvN2u1RVsM9mRVee-1">
          <mxGeometry x="550" y="280" width="90" height="40" as="geometry" />
        </mxCell>
        <mxCell id="J3-oBvN2u1RVsM9mRVee-13" value="Título&amp;nbsp;" style="ellipse;whiteSpace=wrap;html=1;" vertex="1" parent="J3-oBvN2u1RVsM9mRVee-1">
          <mxGeometry x="660" y="250" width="90" height="40" as="geometry" />
        </mxCell>
        <mxCell id="J3-oBvN2u1RVsM9mRVee-14" value="Dirección" style="ellipse;whiteSpace=wrap;html=1;" vertex="1" parent="J3-oBvN2u1RVsM9mRVee-1">
          <mxGeometry x="730" y="320" width="90" height="40" as="geometry" />
        </mxCell>
      </root>
    </mxGraphModel>
  </diagram>
  <diagram name="Copia de Copia de Página-1" id="5fyZN5BfusQmxSZ7cXZ1">
    <mxGraphModel dx="838" dy="453" grid="1" gridSize="10" guides="1" tooltips="1" connect="1" arrows="1" fold="1" page="1" pageScale="1" pageWidth="827" pageHeight="1169" math="0" shadow="0">
      <root>
        <mxCell id="MLeEJv11VOiZvi2Bp-_t-0" />
        <mxCell id="MLeEJv11VOiZvi2Bp-_t-1" parent="MLeEJv11VOiZvi2Bp-_t-0" />
        <mxCell id="MLeEJv11VOiZvi2Bp-_t-2" value="&lt;font style=&quot;vertical-align: inherit;&quot;&gt;&lt;font style=&quot;vertical-align: inherit;&quot;&gt;Actor&lt;/font&gt;&lt;/font&gt;" style="rounded=0;whiteSpace=wrap;html=1;" vertex="1" parent="MLeEJv11VOiZvi2Bp-_t-1">
          <mxGeometry x="240" y="400" width="90" height="40" as="geometry" />
        </mxCell>
        <mxCell id="MLeEJv11VOiZvi2Bp-_t-3" value="&lt;u&gt;código&lt;/u&gt;" style="ellipse;whiteSpace=wrap;html=1;" vertex="1" parent="MLeEJv11VOiZvi2Bp-_t-1">
          <mxGeometry x="70" y="320" width="90" height="40" as="geometry" />
        </mxCell>
        <mxCell id="MLeEJv11VOiZvi2Bp-_t-4" value="Nombre" style="ellipse;whiteSpace=wrap;html=1;" vertex="1" parent="MLeEJv11VOiZvi2Bp-_t-1">
          <mxGeometry x="70" y="440" width="90" height="50" as="geometry" />
        </mxCell>
        <mxCell id="MLeEJv11VOiZvi2Bp-_t-5" value="Nombrer" style="ellipse;whiteSpace=wrap;html=1;" vertex="1" parent="MLeEJv11VOiZvi2Bp-_t-1">
          <mxGeometry x="20" y="530" width="80" height="45" as="geometry" />
        </mxCell>
        <mxCell id="MLeEJv11VOiZvi2Bp-_t-6" value="Apellido" style="ellipse;whiteSpace=wrap;html=1;" vertex="1" parent="MLeEJv11VOiZvi2Bp-_t-1">
          <mxGeometry x="140" y="530" width="80" height="45" as="geometry" />
        </mxCell>
        <mxCell id="MLeEJv11VOiZvi2Bp-_t-7" value="Edad" style="ellipse;whiteSpace=wrap;html=1;align=center;dashed=1;" vertex="1" parent="MLeEJv11VOiZvi2Bp-_t-1">
          <mxGeometry x="230" y="250" width="70" height="40" as="geometry" />
        </mxCell>
        <mxCell id="MLeEJv11VOiZvi2Bp-_t-8" value="FechaNacimiento" style="ellipse;whiteSpace=wrap;html=1;align=center;" vertex="1" parent="MLeEJv11VOiZvi2Bp-_t-1">
          <mxGeometry x="347" y="240" width="146" height="40" as="geometry" />
        </mxCell>
        <mxCell id="MLeEJv11VOiZvi2Bp-_t-9" value="Teléfono" style="ellipse;shape=doubleEllipse;margin=3;whiteSpace=wrap;html=1;align=center;" vertex="1" parent="MLeEJv11VOiZvi2Bp-_t-1">
          <mxGeometry x="360" y="320" width="100" height="40" as="geometry" />
        </mxCell>
        <mxCell id="MLeEJv11VOiZvi2Bp-_t-10" value="Actúa" style="rhombus;whiteSpace=wrap;html=1;" vertex="1" parent="MLeEJv11VOiZvi2Bp-_t-1">
          <mxGeometry x="450" y="400" width="80" height="40" as="geometry" />
        </mxCell>
        <mxCell id="MLeEJv11VOiZvi2Bp-_t-11" value="Película&amp;nbsp;" style="rounded=0;whiteSpace=wrap;html=1;" vertex="1" parent="MLeEJv11VOiZvi2Bp-_t-1">
          <mxGeometry x="650" y="400" width="80" height="40" as="geometry" />
        </mxCell>
        <mxCell id="MLeEJv11VOiZvi2Bp-_t-12" value="&lt;u&gt;código&lt;/u&gt;" style="ellipse;whiteSpace=wrap;html=1;" vertex="1" parent="MLeEJv11VOiZvi2Bp-_t-1">
          <mxGeometry x="550" y="280" width="90" height="40" as="geometry" />
        </mxCell>
        <mxCell id="MLeEJv11VOiZvi2Bp-_t-13" value="Título&amp;nbsp;" style="ellipse;whiteSpace=wrap;html=1;" vertex="1" parent="MLeEJv11VOiZvi2Bp-_t-1">
          <mxGeometry x="660" y="250" width="90" height="40" as="geometry" />
        </mxCell>
        <mxCell id="MLeEJv11VOiZvi2Bp-_t-14" value="Dirección" style="ellipse;whiteSpace=wrap;html=1;" vertex="1" parent="MLeEJv11VOiZvi2Bp-_t-1">
          <mxGeometry x="730" y="320" width="90" height="40" as="geometry" />
        </mxCell>
        <mxCell id="Zn9ZvvAa_EXb5Ppr6Ut4-241" value="Produce&amp;nbsp;" style="rhombus;whiteSpace=wrap;html=1;" vertex="1" parent="MLeEJv11VOiZvi2Bp-_t-1">
          <mxGeometry x="650" y="490" width="80" height="40" as="geometry" />
        </mxCell>
        <mxCell id="Zn9ZvvAa_EXb5Ppr6Ut4-242" value="Estudio&amp;nbsp;" style="rounded=0;whiteSpace=wrap;html=1;" vertex="1" parent="MLeEJv11VOiZvi2Bp-_t-1">
          <mxGeometry x="650" y="575" width="80" height="40" as="geometry" />
        </mxCell>
        <mxCell id="Zn9ZvvAa_EXb5Ppr6Ut4-243" value="&lt;u&gt;código&lt;/u&gt;" style="ellipse;whiteSpace=wrap;html=1;" vertex="1" parent="MLeEJv11VOiZvi2Bp-_t-1">
          <mxGeometry x="460" y="575" width="90" height="40" as="geometry" />
        </mxCell>
        <mxCell id="Zn9ZvvAa_EXb5Ppr6Ut4-244" value="Nombre" style="ellipse;whiteSpace=wrap;html=1;" vertex="1" parent="MLeEJv11VOiZvi2Bp-_t-1">
          <mxGeometry x="510" y="670" width="90" height="40" as="geometry" />
        </mxCell>
        <mxCell id="Zn9ZvvAa_EXb5Ppr6Ut4-245" value="Domicilio&amp;nbsp;" style="ellipse;whiteSpace=wrap;html=1;" vertex="1" parent="MLeEJv11VOiZvi2Bp-_t-1">
          <mxGeometry x="710" y="650" width="110" height="40" as="geometry" />
        </mxCell>
        <mxCell id="Zn9ZvvAa_EXb5Ppr6Ut4-246" value="&lt;u&gt;Dirección&amp;nbsp;&lt;/u&gt;" style="ellipse;whiteSpace=wrap;html=1;" vertex="1" parent="MLeEJv11VOiZvi2Bp-_t-1">
          <mxGeometry x="610" y="740" width="90" height="40" as="geometry" />
        </mxCell>
        <mxCell id="Zn9ZvvAa_EXb5Ppr6Ut4-247" value="&lt;u&gt;Ciudad&lt;/u&gt;" style="ellipse;whiteSpace=wrap;html=1;" vertex="1" parent="MLeEJv11VOiZvi2Bp-_t-1">
          <mxGeometry x="720" y="750" width="90" height="40" as="geometry" />
        </mxCell>
        <mxCell id="Zn9ZvvAa_EXb5Ppr6Ut4-252" value="" style="endArrow=none;html=1;rounded=0;fontSize=12;startSize=8;endSize=8;curved=1;entryX=0;entryY=1;entryDx=0;entryDy=0;exitX=0.641;exitY=-0.042;exitDx=0;exitDy=0;exitPerimeter=0;" edge="1" parent="MLeEJv11VOiZvi2Bp-_t-1" source="MLeEJv11VOiZvi2Bp-_t-2" target="MLeEJv11VOiZvi2Bp-_t-8">
          <mxGeometry width="50" height="50" relative="1" as="geometry">
            <mxPoint x="390" y="320" as="sourcePoint" />
            <mxPoint x="440" y="270" as="targetPoint" />
          </mxGeometry>
        </mxCell>
        <mxCell id="Zn9ZvvAa_EXb5Ppr6Ut4-254" value="" style="endArrow=none;html=1;rounded=0;fontSize=12;startSize=8;endSize=8;curved=1;exitX=0;exitY=1;exitDx=0;exitDy=0;entryX=1;entryY=0;entryDx=0;entryDy=0;" edge="1" parent="MLeEJv11VOiZvi2Bp-_t-1" source="MLeEJv11VOiZvi2Bp-_t-9" target="MLeEJv11VOiZvi2Bp-_t-2">
          <mxGeometry width="50" height="50" relative="1" as="geometry">
            <mxPoint x="390" y="320" as="sourcePoint" />
            <mxPoint x="440" y="270" as="targetPoint" />
          </mxGeometry>
        </mxCell>
        <mxCell id="Zn9ZvvAa_EXb5Ppr6Ut4-255" value="" style="endArrow=none;html=1;rounded=0;fontSize=12;startSize=8;endSize=8;curved=1;exitX=0.5;exitY=1;exitDx=0;exitDy=0;entryX=0.25;entryY=0;entryDx=0;entryDy=0;" edge="1" parent="MLeEJv11VOiZvi2Bp-_t-1" source="MLeEJv11VOiZvi2Bp-_t-7" target="MLeEJv11VOiZvi2Bp-_t-2">
          <mxGeometry width="50" height="50" relative="1" as="geometry">
            <mxPoint x="390" y="320" as="sourcePoint" />
            <mxPoint x="440" y="270" as="targetPoint" />
          </mxGeometry>
        </mxCell>
        <mxCell id="Zn9ZvvAa_EXb5Ppr6Ut4-256" value="" style="endArrow=none;html=1;rounded=0;fontSize=12;startSize=8;endSize=8;curved=1;exitX=0.5;exitY=1;exitDx=0;exitDy=0;entryX=0;entryY=0;entryDx=0;entryDy=0;" edge="1" parent="MLeEJv11VOiZvi2Bp-_t-1" source="MLeEJv11VOiZvi2Bp-_t-3" target="MLeEJv11VOiZvi2Bp-_t-2">
          <mxGeometry width="50" height="50" relative="1" as="geometry">
            <mxPoint x="390" y="320" as="sourcePoint" />
            <mxPoint x="440" y="270" as="targetPoint" />
          </mxGeometry>
        </mxCell>
        <mxCell id="Zn9ZvvAa_EXb5Ppr6Ut4-257" value="" style="endArrow=none;html=1;rounded=0;fontSize=12;startSize=8;endSize=8;curved=1;exitX=1;exitY=0;exitDx=0;exitDy=0;entryX=0;entryY=0.75;entryDx=0;entryDy=0;" edge="1" parent="MLeEJv11VOiZvi2Bp-_t-1" source="MLeEJv11VOiZvi2Bp-_t-4" target="MLeEJv11VOiZvi2Bp-_t-2">
          <mxGeometry width="50" height="50" relative="1" as="geometry">
            <mxPoint x="390" y="410" as="sourcePoint" />
            <mxPoint x="440" y="360" as="targetPoint" />
          </mxGeometry>
        </mxCell>
        <mxCell id="Zn9ZvvAa_EXb5Ppr6Ut4-258" value="" style="endArrow=classic;html=1;rounded=0;fontSize=12;startSize=8;endSize=8;curved=1;" edge="1" parent="MLeEJv11VOiZvi2Bp-_t-1">
          <mxGeometry relative="1" as="geometry">
            <mxPoint x="330" y="390" as="sourcePoint" />
            <mxPoint x="490" y="390" as="targetPoint" />
          </mxGeometry>
        </mxCell>
        <mxCell id="Zn9ZvvAa_EXb5Ppr6Ut4-259" value="Label" style="edgeLabel;resizable=0;html=1;;align=center;verticalAlign=middle;" connectable="0" vertex="1" parent="Zn9ZvvAa_EXb5Ppr6Ut4-258">
          <mxGeometry relative="1" as="geometry" />
        </mxCell>
        <mxCell id="Zn9ZvvAa_EXb5Ppr6Ut4-260" value="Source" style="edgeLabel;resizable=0;html=1;;align=left;verticalAlign=bottom;" connectable="0" vertex="1" parent="Zn9ZvvAa_EXb5Ppr6Ut4-258">
          <mxGeometry x="-1" relative="1" as="geometry" />
        </mxCell>
      </root>
    </mxGraphModel>
  </diagram>
</mxfile>
